<svg width="13" height="12" viewBox="0 0 13 12" fill="none" xmlns="http://www.w3.org/2000/svg">
<path fill-rule="evenodd" clip-rule="evenodd" d="M0.586914 6.00195C0.586914 3.60519 0.586914 2.40681 1.15804 1.54365C1.41308 1.15821 1.74317 0.828117 2.12862 0.573081C2.99177 0.00195312 4.19015 0.00195312 6.58691 0.00195312C8.98367 0.00195312 10.1821 0.00195312 11.0452 0.573081C11.4307 0.828117 11.7607 1.15821 12.0158 1.54365C12.5869 2.40681 12.5869 3.60519 12.5869 6.00195C12.5869 8.39871 12.5869 9.59709 12.0158 10.4603C11.7607 10.8457 11.4307 11.1758 11.0452 11.4308C10.1821 12.002 8.98367 12.002 6.58691 12.002C4.19015 12.002 2.99177 12.002 2.12862 11.4308C1.74317 11.1758 1.41308 10.8457 1.15804 10.4603C0.586914 9.59709 0.586914 8.39871 0.586914 6.00195ZM9.69308 6.0021C9.69308 7.71765 8.30235 9.10838 6.58681 9.10838C4.87126 9.10838 3.48053 7.71765 3.48053 6.0021C3.48053 4.28656 4.87126 2.89583 6.58681 2.89583C8.30235 2.89583 9.69308 4.28656 9.69308 6.0021ZM6.58681 8.05744C7.72194 8.05744 8.64214 7.13723 8.64214 6.0021C8.64214 4.86697 7.72194 3.94677 6.58681 3.94677C5.45168 3.94677 4.53147 4.86697 4.53147 6.0021C4.53147 7.13723 5.45168 8.05744 6.58681 8.05744ZM9.81576 3.46965C10.2189 3.46965 10.5456 3.14287 10.5456 2.73977C10.5456 2.33667 10.2189 2.00989 9.81576 2.00989C9.41266 2.00989 9.08588 2.33667 9.08588 2.73977C9.08588 3.14287 9.41266 3.46965 9.81576 3.46965Z" fill="#555555"/>
</svg>
