<svg width="13" height="12" viewBox="0 0 13 12" fill="none" xmlns="http://www.w3.org/2000/svg">
<path d="M0.586914 1.61516C0.586914 1.23035 0.722053 0.91289 0.992319 0.662778C1.26259 0.412654 1.61394 0.287598 2.04637 0.287598C2.47109 0.287598 2.81471 0.410726 3.07726 0.657006C3.34753 0.910974 3.48267 1.24189 3.48267 1.64979C3.48267 2.0192 3.3514 2.32703 3.08884 2.57331C2.81858 2.82728 2.46336 2.95426 2.02321 2.95426H2.01162C1.58691 2.95426 1.24329 2.82728 0.980736 2.57331C0.718184 2.31934 0.586914 1.99995 0.586914 1.61516ZM0.737493 11.7162V4.00477H3.30892V11.7162H0.737493ZM4.73363 11.7162H7.30506V7.41025C7.30506 7.14088 7.33595 6.93309 7.39772 6.78687C7.50583 6.52521 7.66993 6.30394 7.89 6.12309C8.11008 5.94223 8.38614 5.85181 8.71819 5.85181C9.58306 5.85181 10.0155 6.43285 10.0155 7.59495V11.7162H12.5869V7.29481C12.5869 6.1558 12.3166 5.29192 11.7761 4.70318C11.2356 4.11444 10.5213 3.82006 9.63325 3.82006C8.63711 3.82006 7.86105 4.24719 7.30506 5.10145V5.12454H7.29348L7.30506 5.10145V4.00477H4.73363C4.74907 4.25104 4.7568 5.01678 4.7568 6.30202C4.7568 7.58725 4.74907 9.39196 4.73363 11.7162Z" fill="#555555"/>
</svg>
