<svg width="13" height="10" viewBox="0 0 13 10" fill="none" xmlns="http://www.w3.org/2000/svg">
<path d="M8.60495 0.13595V0.133789H9.16762L9.37321 0.17485C9.51027 0.201508 9.63471 0.236442 9.74652 0.279665C9.85834 0.322887 9.96654 0.373317 10.0711 0.430943C10.1757 0.488569 10.2706 0.547287 10.3557 0.607074C10.4401 0.666149 10.5159 0.728821 10.583 0.795092C10.6493 0.862087 10.7528 0.879376 10.8935 0.846959C11.0342 0.814542 11.1857 0.769515 11.348 0.711889C11.5103 0.654263 11.6708 0.589429 11.8295 0.517388C11.9882 0.445347 12.0849 0.399607 12.1195 0.380157C12.1534 0.359994 12.1714 0.349188 12.1736 0.34774L12.1757 0.344498L12.1866 0.339096L12.1974 0.333693L12.2082 0.32829L12.219 0.322887L12.2212 0.319645L12.2244 0.317484L12.2277 0.315323L12.2298 0.312082L12.2407 0.30884L12.2515 0.306679L12.2493 0.322887L12.2461 0.339096L12.2407 0.355304L12.2352 0.371512L12.2298 0.382318L12.2244 0.393124L12.219 0.409332C12.2154 0.420138 12.2118 0.434541 12.2082 0.452554C12.2046 0.470567 12.1703 0.542597 12.1054 0.668666C12.0405 0.794735 11.9593 0.922598 11.8619 1.05227C11.7646 1.18193 11.6773 1.2799 11.6001 1.34618C11.5222 1.41317 11.4706 1.45999 11.4453 1.48665C11.4201 1.51402 11.3894 1.53923 11.3534 1.56229L11.2993 1.59795L11.2884 1.60335L11.2776 1.60875L11.2755 1.612L11.2722 1.61416L11.269 1.61632L11.2668 1.61956L11.256 1.62496L11.2452 1.63037L11.243 1.63361L11.2398 1.63577L11.2365 1.63793L11.2343 1.64117L11.2322 1.64441L11.2289 1.64657L11.2257 1.64873L11.2235 1.65198H11.2776L11.5806 1.58714C11.7826 1.54392 11.9756 1.4917 12.1595 1.43046L12.4517 1.33321L12.4841 1.32241L12.5003 1.317L12.5112 1.3116L12.522 1.3062L12.5328 1.30079L12.5436 1.29539L12.5653 1.29215L12.5869 1.28999V1.3116L12.5815 1.31376L12.5761 1.317L12.5739 1.32024L12.5707 1.32241L12.5674 1.32457L12.5653 1.32781L12.5631 1.33105L12.5599 1.33321L12.5566 1.33537L12.5545 1.33861L12.5523 1.34186L12.549 1.34402L12.5436 1.35482L12.5382 1.36563L12.535 1.36779C12.5335 1.36995 12.4877 1.43117 12.3976 1.55148C12.3074 1.67251 12.2587 1.73373 12.2515 1.73518C12.2443 1.73734 12.2342 1.74815 12.2212 1.7676C12.2089 1.78776 12.1325 1.86809 11.9918 2.00856C11.8511 2.14903 11.7133 2.27401 11.5784 2.38352C11.4428 2.49373 11.3743 2.62916 11.3729 2.78981C11.3707 2.94973 11.3624 3.13055 11.348 3.33225C11.3335 3.53396 11.3065 3.75186 11.2668 3.98599C11.2271 4.22011 11.1658 4.48485 11.0829 4.7802C10.9999 5.07555 10.8989 5.3637 10.7799 5.64465C10.6609 5.92559 10.5364 6.17772 10.4066 6.40104C10.2767 6.62436 10.1577 6.81346 10.0495 6.96833C9.94129 7.12321 9.83129 7.26909 9.71947 7.40596C9.60766 7.54284 9.46628 7.697 9.29531 7.86844C9.12362 8.03917 9.02985 8.13282 9.01398 8.14939C8.99739 8.16524 8.9267 8.22431 8.80188 8.3266C8.67781 8.42961 8.54435 8.53262 8.40152 8.63564C8.25942 8.73794 8.12884 8.8233 8.00982 8.89173C7.89079 8.96016 7.74725 9.03832 7.57916 9.12621C7.41181 9.21482 7.23074 9.29694 7.03597 9.37258C6.8412 9.44822 6.63561 9.51846 6.4192 9.58329C6.20278 9.64812 5.99359 9.69855 5.7916 9.73457C5.58963 9.77058 5.36059 9.80121 5.1045 9.82642L4.72037 9.86424V9.86964H4.01703V9.86424L3.92506 9.85883C3.86375 9.85523 3.81325 9.85163 3.77357 9.84803C3.7339 9.84443 3.58421 9.82461 3.32452 9.7886C3.06482 9.75258 2.86104 9.71656 2.71315 9.68054C2.56528 9.64453 2.34525 9.57608 2.0531 9.47523C1.76094 9.37438 1.51099 9.27244 1.30324 9.16944C1.09621 9.06714 0.966359 9.00231 0.913695 8.97493C0.861756 8.94828 0.803325 8.91515 0.738402 8.87552L0.641017 8.81609L0.638864 8.81285L0.635607 8.81069L0.63236 8.80853L0.630196 8.80529L0.619376 8.79988L0.608555 8.79448L0.606402 8.79124L0.603145 8.78908L0.599899 8.78692L0.597735 8.78368L0.595581 8.78043L0.592324 8.77827H0.586914V8.75666L0.597735 8.75882L0.608555 8.76206L0.657248 8.76747C0.689709 8.77106 0.778081 8.77647 0.922351 8.78368C1.06663 8.79088 1.21992 8.79088 1.38223 8.78368C1.54453 8.77647 1.71046 8.76026 1.87997 8.73505C2.0495 8.70984 2.24968 8.66662 2.48051 8.60538C2.71136 8.54415 2.92344 8.47139 3.11677 8.38711C3.30938 8.30211 3.44643 8.23872 3.52795 8.19693C3.60874 8.15587 3.73209 8.07951 3.89801 7.96785L4.14688 7.80036L4.14904 7.79712L4.15229 7.79496L4.15555 7.7928L4.1577 7.78956L4.15986 7.78632L4.16311 7.78416L4.16637 7.782L4.16852 7.77875L4.17934 7.77551L4.19016 7.77335L4.19232 7.76255L4.19557 7.75174L4.19883 7.74958L4.20098 7.74634L4.11442 7.74093C4.05671 7.73734 4.0008 7.73373 3.9467 7.73013C3.89259 7.72653 3.80784 7.71032 3.69241 7.6815C3.577 7.65269 3.45257 7.60946 3.31911 7.55184C3.18566 7.49421 3.05581 7.42577 2.92957 7.34653C2.80333 7.26729 2.71207 7.20137 2.6558 7.14879C2.60026 7.09691 2.52812 7.02344 2.43939 6.92835C2.35139 6.83255 2.27492 6.73421 2.21 6.63336C2.14507 6.53251 2.08304 6.41616 2.0239 6.28434L1.93407 6.08768L1.92866 6.07147L1.92325 6.05526L1.92001 6.04445L1.91784 6.03365L1.93407 6.03581L1.9503 6.03905L2.06933 6.05526C2.14869 6.06607 2.27313 6.06966 2.44264 6.06607C2.61217 6.06247 2.72938 6.05526 2.79431 6.04445C2.85923 6.03365 2.89891 6.02644 2.91333 6.02284L2.93498 6.01744L2.96203 6.01204L2.98908 6.00663L2.99124 6.00339L2.99449 6.00123L2.99775 5.99907L2.9999 5.99583L2.97826 5.99043L2.95662 5.98502L2.93498 5.97962L2.91333 5.97422L2.89169 5.96882C2.87727 5.96522 2.85203 5.95801 2.81595 5.9472C2.77988 5.9364 2.6825 5.89677 2.52379 5.82834C2.3651 5.75991 2.23886 5.69327 2.14507 5.62844C2.05106 5.56342 1.96142 5.49231 1.87672 5.41557C1.79232 5.33777 1.69964 5.23763 1.59864 5.11517C1.49765 4.99271 1.40748 4.85044 1.32812 4.68835C1.24878 4.52627 1.18926 4.37139 1.14958 4.22371C1.11006 4.0769 1.08399 3.9268 1.07169 3.77528L1.0522 3.54836L1.06302 3.55052L1.07384 3.55376L1.08466 3.55917L1.09548 3.56457L1.1063 3.56997L1.11712 3.57537L1.28484 3.65101C1.39666 3.70144 1.53552 3.74467 1.70143 3.78068C1.86735 3.8167 1.96654 3.83651 1.999 3.84011L2.04769 3.84551H2.14507L2.14292 3.84227L2.13966 3.84011L2.13642 3.83795L2.13425 3.83471L2.1321 3.83147L2.12884 3.82931L2.1256 3.82714L2.12343 3.8239L2.11261 3.8185L2.10179 3.8131L2.09964 3.80986L2.09638 3.80769L2.09314 3.80553L2.09097 3.80229L2.08015 3.79689L2.06933 3.79149L2.06718 3.78824C2.06501 3.7868 2.03399 3.76375 1.97411 3.71909C1.91495 3.6737 1.85292 3.615 1.788 3.54296C1.72307 3.47092 1.65815 3.39528 1.59323 3.31604C1.52818 3.23662 1.47025 3.15165 1.4201 3.06211C1.36961 2.97206 1.31622 2.85751 1.25995 2.71849C1.20441 2.58018 1.16221 2.44079 1.13335 2.30031C1.1045 2.15984 1.08827 2.02117 1.08466 1.8843C1.08106 1.74742 1.08466 1.63037 1.09548 1.53311C1.1063 1.43586 1.12794 1.326 1.1604 1.20354C1.19287 1.08108 1.23976 0.951417 1.30107 0.814542L1.39305 0.609236L1.39846 0.593027L1.40387 0.576819L1.40712 0.574658L1.40928 0.571416L1.41144 0.568174L1.41469 0.566013L1.41794 0.568174L1.4201 0.571416L1.42226 0.574658L1.42551 0.576819L1.42876 0.57898L1.43092 0.582222L1.43308 0.585463L1.43633 0.587624L1.44174 0.59843L1.44715 0.609236L1.45041 0.611397L1.45256 0.614638L1.59864 0.776722C1.69602 0.884779 1.81144 1.00544 1.94489 1.13871C2.07836 1.27198 2.15229 1.34113 2.16672 1.34618C2.18115 1.35194 2.19918 1.3685 2.22082 1.39588C2.24246 1.42254 2.3146 1.48629 2.43723 1.58714C2.55987 1.68799 2.72037 1.80506 2.91874 1.93832C3.11713 2.07159 3.33714 2.20306 3.5788 2.33273C3.82047 2.4624 4.08016 2.57945 4.35788 2.68391C4.63561 2.78837 4.83038 2.8568 4.94219 2.88922C5.05401 2.92163 5.24516 2.96305 5.51568 3.01348C5.78619 3.06391 5.98999 3.09633 6.12704 3.11073C6.2641 3.12514 6.35789 3.13342 6.40837 3.13559L6.48412 3.13775L6.48197 3.12154L6.47871 3.10533L6.45707 2.97026C6.44264 2.88022 6.43543 2.75415 6.43543 2.59206C6.43543 2.42998 6.44805 2.28051 6.4733 2.14363C6.49855 2.00676 6.53643 1.86809 6.58691 1.72762C6.63741 1.58714 6.68683 1.4744 6.73516 1.3894C6.78422 1.30512 6.84841 1.20895 6.92776 1.10089C7.00712 0.992835 7.10992 0.88118 7.23615 0.765917C7.36239 0.650654 7.50666 0.548 7.66897 0.457957C7.83128 0.367914 7.98097 0.299471 8.11802 0.252651C8.25509 0.20583 8.37051 0.175207 8.46428 0.160803C8.55806 0.146399 8.60495 0.138111 8.60495 0.13595Z" fill="#555555"/>
</svg>
