<svg width="15" height="10" viewBox="0 0 15 10" fill="none" xmlns="http://www.w3.org/2000/svg">
<path d="M7.87925 9.65524L5.17113 9.60462C4.29429 9.58699 3.41528 9.62219 2.55564 9.43947C1.24793 9.16646 1.15529 7.82786 1.05835 6.70503C0.924773 5.12647 0.976483 3.51926 1.22856 1.95388C1.37086 1.07553 1.93088 0.551418 2.79693 0.494385C5.7205 0.287402 8.66351 0.311931 11.5806 0.408496C11.8887 0.417349 12.1989 0.465733 12.5027 0.520807C14.0022 0.789419 14.0388 2.30635 14.136 3.58332C14.2329 4.87347 14.192 6.17024 14.0067 7.4516C13.858 8.51254 13.5736 9.40224 12.3734 9.48812C10.8695 9.60043 9.40022 9.69085 7.89215 9.66206C7.89221 9.65524 7.88355 9.65524 7.87925 9.65524ZM6.28714 6.96925C7.4204 6.30431 8.53205 5.65045 9.65884 4.98997C8.52345 4.32503 7.41392 3.67117 6.28714 3.01069V6.96925Z" fill="#555555"/>
</svg>
